PathFileType	4	(X/Y/Z)	C:/Users/beibeiliu/ov580/test_trc\sequence.2_training_dense_left.trc
DataRate	CameraRate	NumFrames	NumMarkers	Units	OrigDataRate	OrigDataStartFrame	OrigNumFrames
120	120	22	19	mm	120	40	313
Frame#	Time	ThumbCMC			ThumbMCP			ThumbIP			ThumbTip			IndexMCP			IndexPIP			IndexTip			MiddleMCP			MiddlePIP			MiddleTip			RingMCP			RingPIP			RingTip			PinkyMCP			PinkyPIP			PinkyTip			BackHand1			BackHand2			BackHand3	
		X0	Y0	Z0	X1	Y1	Z1	X2	Y2	Z2	X3	Y3	Z3	X4	Y4	Z4	X5	Y5	Z5	X6	Y6	Z6	X7	Y7	Z7	X8	Y8	Z8	X9	Y9	Z9	X10	Y10	Z10	X11	Y11	Z11	X12	Y12	Z12	X13	Y13	Z13	X14	Y14	Z14	X15	Y15	Z15	X16	Y16	Z16	X17	Y17	Z17	X18	Y18	Z18	
39	0.325	-136.522	25.2088	16.7627	-130.158	54.7773	7.29755	-107.09	71.8876	1.76307	-82.2676	78.6437	7.97948	-96.0657	62.9308	-19.5874	-99.4287	85.2709	-11.4794	-115.969	87.7077	16.2711	-77.4843	62.1817	-9.10715	-82.3333	89.6003	0.35892	-95.7968	98.8541	22.6062	-72.0988	58.3111	5.89192	-81.0246	82.7982	17.475	-102.531	83.0524	36.5399	-66.0535	55.8005	26.0744	-79.7557	73.3475	32.9803	-104.353	68.8468	40.5272	-87.7597	9.68502	18.1552	-100.933	-4.68652	34.638	-116.219	4.89219	9.07079	
40	0.333333	-139.888	28.8698	13.5802	-128.564	57.2204	4.01003	-109.238	73.0777	-2.23104	-86.3164	83.2425	0.574079	-96.289	61.1502	-23.2859	-102.757	84.9701	-14.4909	-114.812	87.8773	10.7972	-79.8391	61.0392	-13.6222	-82.8148	88.5813	-8.21182	-102.027	101.759	12.774	-70.9416	60.032	4.28563	-82.5765	84.0326	11.7416	-107.069	80.5409	29.5753	-67.2598	54.6614	20.4892	-79.4368	75.1997	28.9849	-105.15	72.4679	33.5441	-82.4401	13.2991	18.264	-100.291	-3.16651	34.7127	-112.427	4.26873	10.0413	
41	0.341667	-141.314	28.68	13.3315	-131.694	57.4071	6.28299	-110.051	76.5442	-4.78831	-88.2502	82.8934	-3.70596	-102.631	56.8352	-27.5777	-104.527	82.9652	-21.8916	-115.852	88.387	4.69158	-82.0859	60.6668	-19.2242	-85.7109	88.6739	-15.8944	-98.545	103.704	8.62441	-72.4001	59.7067	0.0269621	-86.9468	83.2212	5.70875	-108.581	79.7282	23.2973	-66.2649	58.1326	18.3567	-82.3794	76.7082	23.0714	-107.483	71.8288	33.3884	-86.409	13.6482	15.9214	-102.943	-0.857195	32.3826	-116.805	4.83582	9.57254	
42	0.35	-139.952	31.1452	13.0029	-134.768	61.4383	2.15928	-110.769	73.687	-5.64875	-93.1143	82.9436	-6.60751	-108.609	55.4425	-32.5512	-110.029	84.3583	-23.1118	-123.156	88.0866	3.88705	-86.5998	60.9115	-24.1216	-87.3721	88.3511	-20.2837	-105.158	105.755	1.28413	-76.6077	59.6224	-4.20551	-87.9054	84.681	6.15463	-109.938	80.3582	21.3026	-69.1059	58.0934	13.5003	-84.7059	77.4664	17.2179	-108.2	74.0715	26.0989	-90.7171	12.7352	14.7559	-104.141	0.0806461	33.1975	-118.633	5.78693	9.52834	
43	0.358333	-145.391	31.4654	13.2601	-135.121	59.2297	1.5956	-119.545	74.106	-7.57724	-94.795	85.0483	-12.2841	-109.11	56.0446	-33.0616	-114.496	82.2658	-30.7691	-123.651	91.3334	-4.04765	-90.7418	56.0725	-25.5593	-94.6154	88.4935	-26.8472	-104.474	104.693	-5.28969	-81.7153	61.807	-10.3465	-90.577	83.4342	-1.98156	-110.609	81.6249	20.4298	-74.5217	58.6961	5.43502	-86.1155	77.534	12.1198	-108	76.9081	21.4119	-94.1516	14.0367	9.41803	-103.951	0.265579	33.1994	-124.192	5.95113	8.53862	
44	0.366667	-146.711	30.622	15.9542	-141.159	62.1273	-1.12306	-121.251	76.3855	-15.7938	-100.054	80.8721	-16.8368	-117.812	53.3969	-36.1907	-117.018	80.8147	-34.3826	-126.152	91.3188	-5.56861	-98.951	53.8656	-30.2464	-96.1542	83.28	-31.2377	-108.757	105.24	-10.2888	-84.4868	61.6732	-14.0397	-93.3284	83.162	-6.78833	-112.752	82.1879	16.597	-76.956	53.9088	2.67065	-89.6763	78.2968	8.71478	-113.783	74.7683	17.5516	-98.5579	14.0635	9.84834	-111.698	1.99982	28.8424	-127.799	6.93369	4.11329	
45	0.375	-151.52	32.9783	12.8112	-143.441	61.1461	-5.04512	-127.072	72.0803	-14.5168	-108.643	81.0851	-21.0394	-123.007	52.5327	-39.5732	-123.57	80.8608	-36.7104	-130.855	91.9434	-11.338	-103.064	55.3528	-34.8246	-100.164	85.5183	-32.366	-110.826	104.225	-14.5409	-92.0544	57.1466	-19.7167	-98.0174	81.2703	-11.9919	-117.719	81.182	13.0431	-79.9381	57.4662	-2.10181	-90.392	77.2555	4.55826	-112.787	77.7638	13.7049	-99.8366	13.4785	10.2163	-115.934	0.494224	29.6051	-132.036	7.31338	6.79673	
46	0.383333	-155.923	32.3953	9.19827	-150.319	60.7023	-6.93572	-132.186	70.447	-19.1065	-107.692	75.5561	-23.6413	-127.763	48.4899	-41.6317	-124.771	76.0399	-42.3555	-129.866	90.8437	-15.7989	-108.676	52.0574	-38.4703	-107.089	83.7631	-38.233	-114.126	101.912	-18.2487	-90.9024	54.4876	-19.3078	-102.636	80.3805	-15.8547	-117.347	82.4813	8.49348	-83.1078	56.2469	-5.45555	-92.8652	74.1871	-3.19746	-114.098	75.0595	10.5838	-106.571	12.7922	5.74088	-117.77	2.21337	30.6721	-136.58	7.30846	6.01246	
47	0.391667	-160.329	32.3116	10.5142	-150.091	55.7979	-7.10602	-135.549	69.7407	-25.6604	-113.85	76.9201	-30.2719	-130.455	46.4506	-44.9648	-130.54	70.6102	-46.4049	-137.476	89.7344	-22.7358	-110.929	45.4526	-37.8453	-107.154	76.8343	-41.5552	-119.161	99.2885	-23.6074	-95.7512	54.5381	-23.7348	-106.112	76.7549	-19.2503	-122.265	79.8543	5.19999	-88.2338	50.2053	-7.56055	-97.9498	72.9367	-4.08632	-120.037	71.4634	9.16848	-110.02	12.2173	9.69895	-121.603	1.42499	27.364	-139.842	4.55403	6.51767	
48	0.4	-163.046	29.5031	13.4468	-153.972	53.5927	-7.38992	-140.359	66.7271	-27.4749	-115.713	69.8858	-31.2209	-134.409	38.8382	-45.5584	-131.685	66.4845	-48.9246	-139.179	85.526	-27.9212	-113.28	41.1671	-38.8453	-115.342	72.0629	-47.0115	-125.83	95.2986	-28.795	-103.247	46.8104	-25.1145	-108.244	75.4343	-19.5122	-129.761	73.2588	0.989097	-89.6953	51.303	-9.89071	-104.496	71.2698	-7.72247	-122.353	70.4159	4.39725	-111.118	9.4282	10.4781	-121.933	2.83563	29.0784	-138.968	2.73351	10.9023	
49	0.408333	-166.603	28.9063	8.73442	-156.741	50.0159	-9.19929	-142.541	60.8361	-27.2188	-119.991	67.9097	-36.9396	-137.181	34.156	-47.366	-138.229	61.5117	-51.1733	-145.902	79.3087	-32.9867	-117.922	35.753	-42.599	-116.987	64.1072	-49.9187	-125.048	91.2776	-32.1777	-103.978	43.6314	-28.1596	-115.175	70.0758	-24.5975	-129.67	72.1642	-1.58729	-96.2758	41.2236	-11.1918	-107.079	64.7929	-13.982	-127.258	67.5868	4.76758	-114.192	6.66213	7.75227	-127.649	2.53445	31.3853	-143.371	0.946778	10.3805	
50	0.416667	-169.305	26.8479	13.6343	-159.555	47.7582	-12.5588	-145.495	56.8947	-28.651	-125.268	65.5832	-42.0169	-143.583	24.2903	-44.9733	-138.076	53.7644	-53.9995	-149.338	73.0922	-38.91	-121.031	29.3986	-42.5929	-120.033	57.0898	-54.2301	-126.455	82.9729	-41.8575	-108.539	36.2567	-29.6221	-116.723	65.7689	-27.0921	-133.568	65.2755	-3.40184	-97.5771	42.2951	-14.9603	-107.126	63.2829	-15.4162	-129.522	62.3694	-2.31209	-117.415	4.93894	11.0064	-125.788	0.678824	33.2347	-144.813	-1.69153	12.134	
51	0.425	-171.345	25.3036	13.4119	-164.724	46.4548	-14.0133	-147.528	52.1352	-30.6182	-124.661	58.6307	-45.0601	-143.782	18.608	-46.5781	-143.238	44.9559	-56.7079	-151.142	67.8139	-38.8283	-124.445	22.1991	-43.47	-124.999	45.464	-58.9294	-131.592	79.1075	-45.0924	-113.257	31.0059	-32.9742	-122.644	57.842	-32.7935	-133.25	61.1458	-8.78897	-97.5414	36.1434	-15.0121	-113.429	58.1542	-19.1549	-131.896	53.1654	-4.8476	-120.511	3.17327	9.5316	-126.511	2.01792	35.704	-148.837	-4.70583	12.5074	
52	0.433333	-168.956	20.8533	11.6819	-164.998	39.8412	-12.8647	-148.623	45.8749	-39.3977	-127.117	50.7251	-46.8323	-144.904	10.7722	-45.1583	-144.133	35.6948	-58.8472	-151.645	60.1791	-42.8322	-124.611	16.3409	-47.4397	-127.513	37.6609	-61.9548	-137.575	67.5725	-52.8166	-111.55	24.9573	-31.5177	-124.043	50.1906	-36.3026	-136.269	53.5145	-10.581	-100.582	31.2924	-18.6267	-115.939	51.7363	-22.533	-134.136	49.876	-2.2914	-122.453	1.14412	8.66548	-127.894	-0.212801	38.7165	-150.349	-7.07452	12.2153	
53	0.441667	-173.243	20.5545	12.5356	-165.273	35.2843	-19.8026	-151.418	40.682	-41.1703	-130.59	43.4523	-48.2842	-149.037	2.8246	-44.8552	-148.441	27.6012	-61.5089	-155.358	51.0709	-51.5188	-132.131	7.63226	-48.8262	-130.362	32.5059	-64.505	-137.249	60.4522	-55.8011	-118.854	17.1897	-37.1421	-124.162	42.3118	-39.4498	-139.095	47.4862	-17.5505	-105.038	21.6419	-22.5148	-117.883	42.6964	-28.6919	-134.377	43.1946	-9.38295	-122.312	-3.93964	13.7587	-130.86	-2.13965	36.4754	-153.869	-9.71377	13.2433	
54	0.45	-173.723	16.2505	7.56357	-166.649	30.7855	-18.5915	-153.622	33.9988	-41.9676	-132.786	35.6269	-50.9197	-152.129	-3.96296	-45.7049	-151.22	21.4888	-64.3453	-156.479	44.0884	-55.5237	-130.959	-0.775177	-46.5249	-133.73	23.4915	-66.0594	-140.605	52.2494	-60.0187	-117.303	10.168	-35.9899	-125.264	37.3612	-40.6487	-139.542	40.067	-19.3115	-106.473	15.4883	-26.4865	-117.889	35.1741	-32.0817	-133.245	34.0434	-12.0904	-124.873	-8.32732	11.3548	-131.649	-1.37893	37.2581	-156.332	-10.1749	15.1675	
55	0.458333	-173.444	15.1764	8.75449	-167.338	27.432	-22.9734	-153.355	27.9164	-41.0973	-133.919	30.2073	-57.868	-154.947	-10.5739	-43.4203	-152.656	11.2886	-64.3031	-156.64	38.1711	-59.4589	-137.248	-8.76229	-46.9978	-137.014	13.2005	-69.2771	-137.782	41.2626	-65.2258	-123.559	0.157322	-36.5487	-128.565	30.2497	-44.2252	-139.927	35.1481	-22.1352	-107.249	6.65265	-26.4338	-118.04	25.307	-36.8671	-132.244	30.0028	-11.2269	-131.283	-10.831	11.0845	-137.455	-5.8537	34.3191	-158.62	-13.6667	19.181	
56	0.466667	-177.344	11.1265	6.58834	-171.056	23.2191	-23.8335	-158.655	23.286	-45.3363	-140.06	24.3878	-59.181	-159.938	-16.4222	-45.5848	-158.123	2.48078	-65.6292	-160.916	28.5055	-65.7742	-139.951	-15.2843	-48.2074	-137.492	6.73137	-68.8655	-140.048	36.845	-65.7168	-125.8	-6.16574	-36.1121	-130.238	21.8761	-46.0663	-143.658	27.844	-23.0042	-112.966	-1.63107	-23.3996	-119.098	16.9559	-38.8082	-133.409	25.9626	-15.5305	-129.597	-16.6799	9.1024	-137.266	-8.7625	38.2878	-162.424	-16.1746	15.3534	
57	0.475	-178.673	9.44838	10.9678	-172.479	18.2149	-19.781	-157.672	15.7437	-42.5008	-142.057	16.2324	-56.1013	-161.991	-20.2706	-46.2576	-157.193	-3.21463	-65.3077	-161.793	23.6324	-67.5701	-140.582	-20.8055	-46.3101	-138.695	-4.29658	-67.422	-143.789	30.5168	-67.674	-127.808	-10.8849	-40.3138	-133.894	13.3904	-49.8701	-144.027	24.0298	-29.0059	-113.427	-6.19542	-24.0191	-120.203	14.5798	-38.8225	-135.022	24.2815	-19.7425	-132.389	-16.4538	12.0528	-142.981	-11.8052	36.3573	-162.633	-19.2184	19.5019	
58	0.483333	-183.98	7.18385	10.3553	-173.737	14.1247	-20.1436	-164.371	12.8191	-41.1521	-145.28	9.96801	-58.5739	-164.139	-26.6934	-41.4514	-160.124	-11.9718	-64.2365	-163.354	18.9407	-69.3432	-143.385	-25.7657	-42.3505	-142.817	-6.22983	-68.9277	-148.036	23.419	-70.7249	-129.347	-16.9689	-35.9062	-134.774	7.89304	-49.5918	-146.013	19.5562	-30.6745	-115.046	-11.742	-23.907	-122.712	4.06092	-41.0895	-137.452	18.0361	-21.1171	-138.265	-21.602	10.2216	-142.295	-12.1361	37.9972	-163.372	-22.8627	19.5063	
59	0.491667	-187.067	4.84663	10.9736	-177.007	9.92798	-20.7317	-167.163	6.85271	-41.7914	-148.482	2.71607	-57.3069	-168.849	-32.3457	-44.6689	-167.762	-16.6257	-67.0497	-166.444	6.36635	-71.2297	-146.26	-31.593	-44.7863	-147.049	-17.6834	-68.0785	-148.118	13.9351	-71.963	-132.734	-21.7876	-38.9272	-141.132	1.70695	-50.2684	-149.464	15.3503	-26.3994	-119.615	-16.6985	-21.5691	-126.244	0.184781	-41.394	-138.664	10.606	-26.0223	-136.929	-22.8641	15.4571	-142.952	-16.0468	38.1094	-170.104	-26.1861	20.1991	
60	0.5	-190.645	0.281383	11.5535	-181.293	3.87702	-19.6003	-170.46	-1.51972	-45.3559	-154.777	-5.96737	-57.0761	-173.049	-38.2375	-37.2307	-168.366	-27.1769	-63.678	-169.008	2.53004	-73.0213	-155.656	-39.1835	-43.1355	-151.072	-25.8107	-66.552	-157.44	7.27688	-75.1558	-137.706	-29.0148	-37.3415	-141.866	-4.88789	-50.7196	-153.401	8.14825	-31.033	-125.939	-24.6651	-22.5753	-128.077	-10.3177	-42.291	-141.794	7.66693	-29.1249	-143.912	-30.1111	11.4928	-149.411	-19.005	39.1542	-168.863	-28.2209	21.1498	
